{
  "asset": {
    "generator": "Khronos glTF Blender I/O v1.1.46",
    "version": "2.0"
  },
  "scene": 0,
  "scenes": [
    {
      "name": "Scene",
      "nodes": [
        0
      ]
    }
  ],
  "nodes": [
    {
      "mesh": 0,
      "name": "Plane",
      "scale": [
        0.6499999761581421,
        1,
        0.5
      ],
      "translation": [
        2.207584857940674,
        0.002525031566619873,
        1.4303982257843018
      ]
    }
  ],
  "meshes": [
    {
      "name": "Plane.007",
      "primitives": [
        {
          "attributes": {
            "POSITION": 0,
            "NORMAL": 1,
            "TEXCOORD_0": 2
          },
          "indices": 3
        }
      ]
    }
  ],
  "accessors": [
    {
      "bufferView": 0,
      "componentType": 5126,
      "count": 32,
      "max": [
        3.8600926399230957,
        3.871426820755005,
        1
      ],
      "min": [
        -1.8249777555465698,
        0,
        -10.126469612121582
      ],
      "type": "VEC3"
    },
    {
      "bufferView": 1,
      "componentType": 5126,
      "count": 32,
      "type": "VEC3"
    },
    {
      "bufferView": 2,
      "componentType": 5126,
      "count": 32,
      "type": "VEC2"
    },
    {
      "bufferView": 3,
      "componentType": 5123,
      "count": 48,
      "type": "SCALAR"
    }
  ],
  "bufferViews": [
    {
      "buffer": 0,
      "byteLength": 384,
      "byteOffset": 0
    },
    {
      "buffer": 0,
      "byteLength": 384,
      "byteOffset": 384
    },
    {
      "buffer": 0,
      "byteLength": 256,
      "byteOffset": 768
    },
    {
      "buffer": 0,
      "byteLength": 96,
      "byteOffset": 1024
    }
  ],
  "buffers": [
    {
      "uri": "stairs_data.bin",
      "byteLength": 1120
    }
  ]
}